<?xml version="1.0" encoding="UTF-8"?>
<svg xmlns="http://www.w3.org/2000/svg" xmlns:xlink="http://www.w3.org/1999/xlink" width="1235" height="650" viewBox="0 0 1235 650">
  <rect width="1235" height="650" fill="#bf0a30"/>
  <rect width="1235" height="50" y="50" fill="#ffffff"/>
  <rect width="1235" height="50" y="150" fill="#ffffff"/>
  <rect width="1235" height="50" y="250" fill="#ffffff"/>
  <rect width="1235" height="50" y="350" fill="#ffffff"/>
  <rect width="1235" height="50" y="450" fill="#ffffff"/>
  <rect width="1235" height="50" y="550" fill="#ffffff"/>
  <rect width="494" height="350" fill="#002868"/>
  
  <!-- Stars -->
  <g fill="#ffffff">
    <!-- Row 1 -->
    <circle cx="41.17" cy="29.17" r="16.67"/>
    <circle cx="123.5" cy="29.17" r="16.67"/>
    <circle cx="205.83" cy="29.17" r="16.67"/>
    <circle cx="288.17" cy="29.17" r="16.67"/>
    <circle cx="370.5" cy="29.17" r="16.67"/>
    <circle cx="452.83" cy="29.17" r="16.67"/>
    
    <!-- Row 2 -->
    <circle cx="82.33" cy="87.5" r="16.67"/>
    <circle cx="164.67" cy="87.5" r="16.67"/>
    <circle cx="247" cy="87.5" r="16.67"/>
    <circle cx="329.33" cy="87.5" r="16.67"/>
    <circle cx="411.67" cy="87.5" r="16.67"/>
    
    <!-- Row 3 -->
    <circle cx="41.17" cy="145.83" r="16.67"/>
    <circle cx="123.5" cy="145.83" r="16.67"/>
    <circle cx="205.83" cy="145.83" r="16.67"/>
    <circle cx="288.17" cy="145.83" r="16.67"/>
    <circle cx="370.5" cy="145.83" r="16.67"/>
    <circle cx="452.83" cy="145.83" r="16.67"/>
    
    <!-- Row 4 -->
    <circle cx="82.33" cy="204.17" r="16.67"/>
    <circle cx="164.67" cy="204.17" r="16.67"/>
    <circle cx="247" cy="204.17" r="16.67"/>
    <circle cx="329.33" cy="204.17" r="16.67"/>
    <circle cx="411.67" cy="204.17" r="16.67"/>
    
    <!-- Row 5 -->
    <circle cx="41.17" cy="262.5" r="16.67"/>
    <circle cx="123.5" cy="262.5" r="16.67"/>
    <circle cx="205.83" cy="262.5" r="16.67"/>
    <circle cx="288.17" cy="262.5" r="16.67"/>
    <circle cx="370.5" cy="262.5" r="16.67"/>
    <circle cx="452.83" cy="262.5" r="16.67"/>
    
    <!-- Row 6 -->
    <circle cx="82.33" cy="320.83" r="16.67"/>
    <circle cx="164.67" cy="320.83" r="16.67"/>
    <circle cx="247" cy="320.83" r="16.67"/>
    <circle cx="329.33" cy="320.83" r="16.67"/>
    <circle cx="411.67" cy="320.83" r="16.67"/>
  </g>
</svg> 